<?xml version="1.0" encoding="utf-8"?>
<!-- Generator: Adobe Illustrator 19.0.0, SVG Export Plug-In . SVG Version: 6.00 Build 0)  -->
<svg version="1.1" id="图层_1" xmlns="http://www.w3.org/2000/svg" xmlns:xlink="http://www.w3.org/1999/xlink" x="0px" y="0px"
	 viewBox="0 0 210 258" style="enable-background:new 0 0 210 258;" xml:space="preserve">
<style type="text/css">
	.st0{fill:#FFFFFF;}
	.st1{fill:#F2F2F2;}
</style>
<path id="XMLID_6_" class="st0" d="M205.8,257.8H3.8c-2.2,0-4-1.8-4-4V4.2c0-2.2,1.8-4,4-4h202c2.2,0,4,1.8,4,4v249.7
	C209.8,256,208,257.8,205.8,257.8z"/>
<path id="XMLID_11_" class="st1" d="M151.2,147.1h-92c-2.2,0-4-1.8-4-4v-6c0-2.2,1.8-4,4-4h92c2.2,0,4,1.8,4,4v6
	C155.2,145.3,153.4,147.1,151.2,147.1z"/>
<path id="XMLID_10_" class="st1" d="M151.2,168.4h-92c-2.2,0-4-1.8-4-4v-6c0-2.2,1.8-4,4-4h92c2.2,0,4,1.8,4,4v6
	C155.2,166.6,153.4,168.4,151.2,168.4z"/>
<path id="XMLID_9_" class="st1" d="M61,211.8H45c-2.2,0-4-1.8-4-4v-4c0-2.2,1.8-4,4-4h16c2.2,0,4,1.8,4,4v4
	C65,210,63.2,211.8,61,211.8z"/>
<path id="XMLID_14_" class="st1" d="M65,233.2H41c-2.2,0-4-1.8-4-4v-4c0-2.2,1.8-4,4-4h24c2.2,0,4,1.8,4,4v4
	C69,231.4,67.2,233.2,65,233.2z"/>
<path id="XMLID_15_" class="st1" d="M169,233.2h-24c-2.2,0-4-1.8-4-4v-4c0-2.2,1.8-4,4-4h24c2.2,0,4,1.8,4,4v4
	C173,231.4,171.2,233.2,169,233.2z"/>
<path id="XMLID_13_" class="st1" d="M165,211.8h-16c-2.2,0-4-1.8-4-4v-4c0-2.2,1.8-4,4-4h16c2.2,0,4,1.8,4,4v4
	C169,210,167.2,211.8,165,211.8z"/>
<circle id="XMLID_12_" class="st1" cx="105" cy="70.4" r="40"/>
<rect id="XMLID_8_" x="104.7" y="200.3" class="st1" width="1" height="28"/>
</svg>
